<svg width="256" height="256" viewBox="0 0 256 256" fill="none" xmlns="http://www.w3.org/2000/svg">
    <path fill-rule="evenodd" clip-rule="evenodd"
        d="M128 240C189.856 240 240 189.856 240 128C240 66.1441 189.856 16 128 16C66.1441 16 16 66.1441 16 128C16 189.856 66.1441 240 128 240ZM128 224C181.019 224 224 181.019 224 128C224 74.9807 181.019 32 128 32C74.9807 32 32 74.9807 32 128C32 181.019 74.9807 224 128 224Z"
        fill="url(#paint0_linear_1453_16303)" fill-opacity="0.8" />
    <circle cx="128" cy="128" r="96" fill="#8751CB" fill-opacity="0.5" />
    <circle cx="128" cy="128" r="80" fill="#8751CB" fill-opacity="0.4" />
    <circle cx="128" cy="128" r="64" fill="#8751CB" fill-opacity="0.4" />
    <circle cx="128" cy="128" r="48" fill="#8751CB" fill-opacity="0.4" />
    <circle cx="128" cy="128" r="32" fill="#8851CB" />
    <defs>
        <linearGradient id="paint0_linear_1453_16303" x1="128" y1="16" x2="128" y2="240" gradientUnits="userSpaceOnUse">
            <stop stop-color="#CFA9FF" />
            <stop offset="0.875" stop-color="#CFA9FF" stop-opacity="0" />
        </linearGradient>
    </defs>
</svg>